<svg id="图层_1" data-name="图层 1" xmlns="http://www.w3.org/2000/svg" viewBox="0 0 13551.49 2520.86"><defs><style>.cls-1{fill:#0958d9;}</style></defs><path class="cls-1" d="M2400.19,1520.38c-21.89,226.74-106.8,533.46-379.41,756.55-411.7,336.92-916.18,208.49-1000,187.5-627.38-157-1061.06-825.37-1000-1437.5,9.57-96,60.15-478.1,375-750C751-29.8,1194.3,9,1395.78,26.93c485.56,43.34,835.06,294.36,1019.54,460.23-54.29-14.66-113.63-22.73-175.79-22.73-138.88,0-263.65,40.26-349.48,104.24-18.3-62.64-52.46-147.44-119.27-229.24-205-251-537.34-253.21-625-250-410.64,15.07-661.66,340.38-687.5,375C119.18,918.65,281,1630.52,645.78,2026.93c65.26,70.93,338,367.36,750,375,285.89,5.3,574.65-129.66,687.5-312.5,28-45.43,85-137.1,62.5-250-11.16-56-38.41-100-65.65-132C2218.09,1685.82,2334.36,1615.8,2400.19,1520.38Z"/><path class="cls-1" d="M1348.65,2520.86a1348.2,1348.2,0,0,1-330.3-41.57l-1.21-.31c-154.34-38.63-300.62-108.37-434.77-207.26a1395.43,1395.43,0,0,1-180.65-159.38,1471.82,1471.82,0,0,1-151.5-187.56,1493.25,1493.25,0,0,1-118.88-209.09,1446.4,1446.4,0,0,1-82.75-224C5.05,1334.5-9.33,1177.63,5.85,1025.44c7.2-72.15,25.86-185,73.91-312.81C110,632.11,148.17,556.24,193.13,487.15A1035.69,1035.69,0,0,1,667.8,92.08c87.34-36.19,182.7-62,283.44-76.76,183-26.79,347.57-12.1,445.87-3.33,216.83,19.35,428.21,81.87,628.26,185.8,142.3,73.93,276.88,167.53,400,278.21l46.73,42-60.67-16.38c-54.58-14.74-112.41-22.21-171.88-22.21-130.06,0-254.17,36.91-340.52,101.26l-17.31,12.9-6-20.72c-24.54-84-63.73-159.36-116.49-223.95C1562.71,108.4,1240.43,101,1146.33,104.42c-169,6.2-330.36,65.82-479.63,177.2C555.19,364.83,488.18,449.45,470.3,473.4,129,930.57,301.38,1630.48,656.82,2016.78,932.6,2316.5,1211,2383.5,1396.06,2386.93c278.4,5.14,562.05-123.27,674.45-305.38l.34-.54c28.47-46.12,81.47-132,60.22-238.65-9-45-30-87.13-62.36-125.21l-17.36-20.4,26.46-4.14c132.06-20.69,245.06-86.57,310-180.75l32.83-47.59-5.56,57.55c-13.35,138.33-45.95,267.6-96.87,384.21-66.22,151.63-163.1,280.32-288,382.51a1002,1002,0,0,1-321.43,176.52c-96.34,31.84-199.88,50.25-307.74,54.72Q1375,2520.86,1348.65,2520.86ZM1175.23,30.21C955.05,30.21,656,72,405.58,288.28,113.18,540.8,49.51,890,35.71,1028.42c-61.93,620.85,390.85,1271.8,988.71,1421.46l1.22.31A1353.33,1353.33,0,0,0,1348.77,2490c200.27,0,445.78-47.29,662.51-224.65,250.19-204.74,339.25-481.81,368-694.79-29.29,32-64.72,60.56-104.46,84-50.77,29.91-107,51.15-167.4,63.29,26.83,36.65,44.64,76.48,53.06,118.71,23.56,118.24-35.66,214.17-64.11,260.27l-.34.54c-56.48,91.51-157.82,174.1-285.37,232.56a963,963,0,0,1-199.59,65.85,949.13,949.13,0,0,1-215.58,21.21c-96.57-1.79-193-19.52-286.55-52.7-77.2-27.38-153.38-65.57-226.42-113.53-129.4-84.94-215.41-178.42-247.79-213.61-185.83-202-317.58-481.69-361.48-767.46-22.93-149.28-21.16-293.31,5.25-428.07,28.46-145.22,84.9-275.13,167.75-386.1C464.75,430.69,534,343.2,648.76,257.58c68.16-50.86,140.28-91.89,214.35-122C954.44,98.54,1049.36,78,1145.23,74.44c51.93-1.9,156.44-.52,272.86,30.15,68.4,18,131.78,43.74,188.38,76.45,68.24,39.44,127.44,89.53,175.93,148.9,51.08,62.54,90,134.62,115.89,214.51,41.22-27.77,89-50,142.24-66.24,62.67-19.1,129.63-28.78,199-28.78a706.82,706.82,0,0,1,121.65,10.39c-209.5-177.45-536.49-379.55-966.73-417.95C1339.7,37,1263.83,30.21,1175.23,30.21Z"/><path class="cls-1" d="M3230.87,1759.66c2-.51,4-1,5.81-1.52Z"/><path class="cls-1" d="M3358.67,1537.59l-.41,2a645.28,645.28,0,0,1-18.68,70.88c-.92,2.82-1.88,5.68-2.85,8.48-1.49,4.3-3.05,8.62-4.65,12.86l-.15.41c-11.37,30.18-24.31,55.37-38.45,74.9-17.62,24.34-37.17,39.88-58.11,46.19l-.06,0-.07,0c-1.85.56-3.7,1-5.51,1.44h-.09c-22.38,5-47.54.24-74.74-14-27.64-14.44-55.8-37.88-83.71-69.66-60.05-68.38-113.36-170.28-150.24-287.16,6.67-1.72,13.34-3.68,19.84-5.82A315,315,0,0,0,2842,764H2273.42l250.22,250.22c2.2,78.74,3.32,163.61,3.32,252.28,0,214.91-7,413.92-17.72,507l-.39,3.44,3.38-.71c5.48-1.15,11.4-2.18,17.58-3.07a466.26,466.26,0,0,1,124.29,0c6.18.89,12.1,1.92,17.58,3.07l3.38.71-.39-3.44c-6.86-59.33-12.27-161.38-15.24-287.45,14.57-12.37,29.12-19,44.42-20.3a66.6,66.6,0,0,1,10.94,0c51.26,4.17,103.7,66,159.21,131.36s112.75,132.83,176.85,154.45c50.67,17.09,102.48,17.44,103,17.44h.87a314,314,0,0,0,76.09-9.32h.06l5.81-1.52.07,0a316.89,316.89,0,0,0,94.39-43.45c2.38-1.62,4.54-3.11,6.57-4.56s3.78-2.72,5.74-4.18c7.55-5.64,14.57-11.38,21.46-17.56a313.78,313.78,0,0,0,58.92-71.3,321.47,321.47,0,0,0,33.52-76.28l.93-3.2Zm-441-157.91-.5.12-.17,0-202.79,76.73-11.13,4.21h0c-14.92,1.34-29.63,7.69-43.78,18.91-1.1-48-1.81-98.63-2.13-150.56-.13-20.45-.19-41.53-.19-62.65,0-49,.35-97.68,1-144.81,1.34-90.53,3.95-174.4,7.55-242.58,11.88-26.49,25.49-48.38,40.47-65,.62-.69,1.25-1.39,1.87-2.06,11.66-12.54,24.07-21.78,36.92-27.48l.12-.06a81.56,81.56,0,0,1,21.4-6.21l1-.15c34.81-4.55,78,13.34,121.68,50.45,104,88.33,187,264.34,145.82,406-5.38,18.49-35.26,112-95.75,138.91h0c-6.45,2.13-13.06,4.07-19.7,5.77Z"/><path class="cls-1" d="M3236.68,1758.14c-1.84.5-3.79,1-5.81,1.52Z"/><path class="cls-1" d="M3236.68,1758.14c-1.84.5-3.79,1-5.81,1.52Z"/><path class="cls-1" d="M4081.48,1516.68l-.57,1.7c-14.21,42.06-68.41,182.82-169.21,228.39h0a435.72,435.72,0,0,1-43.71,12.88h0c-27.1,3.92-54.32.71-85.65-10.1-101.44-35-222.23-137.52-307.74-261.19-103.71-150-144.45-312.89-114.84-458.93H3955.8l-1.69-3.57c-9.41-19.82-36.29-71.48-82.6-123.15-28.17-31.44-58.87-57.6-91.22-77.75-39.7-24.72-82.24-40.57-126.44-47.09-21.33-3.15-78.07-8.33-144.39,11.45h0l-.11,0c-10.2,3-20.35,6.61-30.15,10.58h0l0,0h0c-57.76,23.38-109.1,62.8-152.58,117.16-35.33,44.16-56.07,86.15-67.21,108.72a525,525,0,0,0-49.07,160.22,493.15,493.15,0,0,0-4.49,91,507.59,507.59,0,0,0,30.64,149.33,552.45,552.45,0,0,0,69.6,131.39c56.77,79.4,133.25,142.58,215.33,177.89,96.83,41.65,199.39,43.76,219,43.76,6.76,0,67.74-.41,128.52-14.85h0l.12,0a446,446,0,0,0,44.49-13.1l.1,0h0c67.45-23.74,132.8-64.38,194.24-120.78a767.74,767.74,0,0,0,98.54-109.95l2.93-4ZM3481.16,804.52h0c9.58-3.87,19.49-7.35,29.47-10.33h0c42.61-8.09,92.12,9.91,139.42,50.66,48.7,41.95,91.53,105.64,120.85,179.6H3360.77C3384.81,910.64,3427.51,832.62,3481.16,804.52Z"/><path class="cls-1" d="M3740.32,1794.43c-20.09,0-125.36-2.17-224.89-45-84.57-36.38-163.27-101.35-221.61-183a567.47,567.47,0,0,1-71.49-135,523.21,523.21,0,0,1-31.53-153.75,508.72,508.72,0,0,1,4.61-93.83,540,540,0,0,1,50.49-164.79c11.38-23.06,32.58-66,68.94-111.44,44.3-55.39,96.6-95.88,155.47-120.38l2.19-2.41h3.76c8.14-3.21,16.48-6.15,24.87-8.77l1.68-1.85h4.48C3575.57,754.42,3634,759.77,3656,763c46.25,6.83,90.72,23.38,132.18,49.2,33.56,20.89,65.34,48,94.46,80.47,47.62,53.12,75.29,106.32,85,126.73l11.87,25H3372.17c-24.22,138.89,16.28,293,114.74,435.4,83.81,121.22,201.68,221.52,300.3,255.54,28.73,9.92,53.53,13,78,9.53a422.53,422.53,0,0,0,40.72-12l2.33-1.13h.16c93.47-44.48,144.73-178,158.31-218.19l4-11.9H4239l-20.5,27.87A782.49,782.49,0,0,1,4118,1641.67c-61.87,56.79-127.74,98-195.83,122.6l-.09.1-.37.12-.25.25-2.52.73-2,.93h-.85c-13.08,4.53-26.4,8.48-39.66,11.76l0,0-3.18.76-1.67.63h-1C3808.74,1794,3747.19,1794.43,3740.32,1794.43ZM3406,859.33a399.73,399.73,0,0,0-67.69,67.15c-34.33,42.91-54.58,83.94-65.47,106a510,510,0,0,0-47.66,155.66,476.52,476.52,0,0,0-4.36,88.18,492.67,492.67,0,0,0,29.74,144.93,537.48,537.48,0,0,0,67.71,127.81c55.21,77.21,129.45,138.59,209.06,172.84,94.13,40.49,194,42.54,213,42.54,2.91,0,16.15-.08,35.14-1.38-103.85-36.6-226.57-140.82-313.22-266.16-103-148.91-145.18-310.8-119.65-457.46h-.32l3.28-15.55,1.92-9.45h.11c12.15-55.07,28.66-101.91,49.13-139.29Q3401.21,866.89,3406,859.33Zm686.21,672.35c-12.11,33.91-40.42,102.77-87,158.77a627.23,627.23,0,0,0,92.54-70.88,749.43,749.43,0,0,0,81.42-87.89Zm-309.07-517.25h148.42a530.16,530.16,0,0,0-71.17-101.71c-27.23-30.39-56.83-55.63-88-75-37.94-23.64-78.55-38.77-120.7-45a306.84,306.84,0,0,0-59.79-2.44c22.72,9.45,45.67,23.94,68,43.2C3709.32,876.05,3753,940.19,3783.09,1014.43Zm-403.59-5h368.88c-27.89-62.93-65.79-116.8-108.08-153.23-43.42-37.42-88.1-54.24-125.92-47.46l-1.32.43h-.18c-7.88,2.42-15.68,5.14-23.28,8.13l-2.21,2.21H3485c-22.81,13-43.64,36.53-62,70C3405.33,921.86,3390.72,962.12,3379.5,1009.43Z"/><path class="cls-1" d="M5022.8,1276.6a502.75,502.75,0,0,1-344.55,477h0a136.86,136.86,0,0,1-36.05,10.43h0A502,502,0,0,1,4269,1711.56c-10.34-6-20.58-12.42-30.44-19.14l-4.62-3.13,174.78-43.7,1,1c81.26,80.85,165.63,121.88,231.51,112.57h0c11.82-3,23.65-6.38,35.15-10.17h0c84.58-37.57,132.19-156.78,148.73-206.31,2.52-7.53,4.27-13.32,5.29-16.85,63-216.84-49.65-449.47-165.31-582.8-43.21-49.81-90.13-89.92-135.68-116-47-26.92-91.92-38.33-129.78-33h0c-11.82,3-23.66,6.39-35.17,10.19h0c-97.09,43.12-145,192.35-153.92,222.82v593.19c0,15.66,0,31.34.08,46.62q.06,15.81.14,31.41c1.14,201.59,6.81,383.74,15.16,487.26l.18,2.21-2.17.43-157.65,31.53-3.35.67.38-3.39c10.33-93,16.95-279.74,17.26-487.4V1714c0-68.5-.67-135.39-2-198.8-2.09-99.32-5.68-185.71-10.4-249.93l-241-241h258.91a503.49,503.49,0,0,1,276.64-224.64,137.21,137.21,0,0,1,36.05-10.42h0a502.14,502.14,0,0,1,624,487.48Z"/><path class="cls-1" d="M4045.8,2239.09l2.63-23.77c10.28-92.51,16.86-278.64,17.17-485.77v-15.61c0-68.46-.67-135.24-2-198.47-2-96.27-5.47-180.32-10-243.6L3791,1009.18h286.58a518.39,518.39,0,0,1,279.79-223.65,151.79,151.79,0,0,1,38.56-11.15,517.47,517.47,0,0,1,290.83,992.25l-1.84,2h-3.55a152.1,152.1,0,0,1-36.27,10.17,517,517,0,0,1-383.56-54.28c-10.68-6.19-21.23-12.82-31.36-19.71l-4.32-2.94c1.19,199.77,6.82,379.91,15.1,482.42l1.26,15.52-15.28,3ZM3863.38,1039.18l219.37,219.37.41,5.57c4.73,64.39,8.34,151.09,10.44,250.72,1.34,63.44,2,130.43,2,199.11v15.63c-.29,196.24-6.22,374-15.61,472.08l130.15-26c-7.91-105.46-13.25-282.34-14.35-477.28q-.09-15.61-.14-31.44c0-15.18-.08-30.88-.08-46.68V1024.89l.6-2.05a584.26,584.26,0,0,1,45.1-109.62q19.26-35.49,41-61.9-20.87,11.71-40.59,25.48A489.82,489.82,0,0,0,4099,1031.73l-4.34,7.45Zm407.81,656.26q2.67,1.59,5.34,3.14a485,485,0,0,0,243.94,65.35q17,0,34-1.17a296.94,296.94,0,0,1-29.75-12.58c-40-19.46-80.52-49-120.5-88ZM4413.31,1629l7,7c38.71,38.51,79.34,68.68,117.5,87.24,36.63,17.81,71.39,25.14,100.6,21.21,7.7-1.94,15.41-4.08,23-6.4v-4h11.74c77.4-36.58,122.05-149,137.77-196.06,2.44-7.3,4.13-12.88,5.12-16.28,61.36-211.05-49.05-438.31-162.24-568.79C4611.71,904.3,4566.13,865.29,4522,840c-42.08-24.08-81.85-35-115.39-31.73l-.72.72h-4.37c-7.37,1.87-14.74,3.93-22,6.16v4h-11.73c-87.36,41.24-132.55,177.59-142.2,210v591c0,15.76,0,31.43.08,46.57l0,9.1Zm73-838.53A313,313,0,0,1,4536.92,814c47,26.91,95.27,68.13,139.56,119.2,118.13,136.17,233.11,374.18,168.39,596.81-1.06,3.65-2.88,9.65-5.47,17.42-9.34,28-25.64,69.85-50.24,110.63a365.44,365.44,0,0,1-30.89,44A486.58,486.58,0,0,0,5007.8,1276.6a486.92,486.92,0,0,0-487.33-487.33Q4503.33,789.27,4486.28,790.45Z"/><path class="cls-1" d="M6042,1787.75l-3.39-.71c-5.4-1.14-11.32-2.17-17.58-3.08a467.6,467.6,0,0,0-124.32,0c-6.25.91-12.17,1.94-17.57,3.08l-3.4.71.4-3.44c3-26.41,5.83-61.48,8.28-104.3-12.35,9.24-25.25,18-38.39,26a499.67,499.67,0,0,1-128.5,55.77h0c-1.09.33-2.19.65-3.29,1-1.43.41-2.88.79-4.33,1.16s-3.08.75-4.62,1.09h-.05l-.06,0a504.79,504.79,0,0,1-121.38,14.76,502.56,502.56,0,0,1-437.93-749.48L4890.07,774.56H5400.2l-1.71,3.57c-4.57,9.58-11.65,24.67-20.24,45-52.62,124.52-158.44,442-4.87,700l.25.43c42.46,71.37,83.61,118.7,110.64,145.84,75.58,75.86,149.53,106.39,219.8,90.75l.06,0h.1c4-.88,7.92-1.92,11.8-3.09l.09,0h0l.3-.09c46.69-14.16,89.29-48.54,123.24-99.47l.34-.51c21-31.71,37.87-68.44,50-109.17,2.52-82.47,3.85-176,3.85-270.59,0-88.69-1.12-173.58-3.31-252.34L5640.26,774.56H6041.1l-.3,2.76c-6.12,57-11.1,150.33-14,262.93-1.93,74.5-2.9,154.22-2.9,236.93s1,162.43,2.9,236.93c3.05,117.91,8.31,213.86,14.82,270.2Z"/><path class="cls-1" d="M6059.28,1806.72l-23.76-5c-5.09-1.07-10.69-2-16.64-2.91a452.15,452.15,0,0,0-120,0c-5.95.86-11.55,1.84-16.64,2.91l-23.75,5,2.77-24.12c2.24-19.43,4.35-43.7,6.28-72.43q-6.77,4.45-13.65,8.66a515,515,0,0,1-132.07,57.37l-1.92.62h-.19l-1.46.41c-1.49.42-3.06.83-4.63,1.23s-3.35.82-5,1.19a519.89,519.89,0,0,1-124.83,15.16A517.56,517.56,0,0,1,5127.28,1033L4853.86,759.56H5424l-12,25c-4.54,9.52-11.55,24.49-20,44.37-51.74,122.43-155.86,434.39-5.8,686.51l.26.44c41.66,70,81.93,116.37,108.37,142.91,71.5,71.77,140.59,101,205.35,86.82l.57-.18.69-.1c3.39-.77,6.72-1.65,9.92-2.61l2.12-.75h.32c42.61-13.46,81.75-45.53,113.31-92.84l.3-.46c20-30.06,36-64.8,47.6-103.36,2.47-81.86,3.78-174.53,3.78-268.17,0-86.25-1.06-169-3.14-246L5604,759.56h453.78l-2.11,19.38c-6.08,56.57-11,149.52-13.93,261.7-1.92,74.35-2.89,153.94-2.89,236.54s1,162.19,2.89,236.54c3,117.49,8.27,213,14.73,268.87Zm-100.41-41.91a458.71,458.71,0,0,1,64.3,4.31l1.76.26c-5.74-58-10.36-147.41-13.14-254.88-1.92-74.61-2.9-154.46-2.9-237.32s1-162.7,2.9-237.32c2.7-104.29,7.17-192.27,12.7-250.3h-348l228.9,228.9.17,6c2.2,79,3.32,164,3.32,252.75,0,94.69-1.34,188.41-3.86,271l-.06,2-.55,1.87c-12.55,42.16-30,80.24-51.88,113.18l-.35.54a326.26,326.26,0,0,1-26.93,35.16q6.54-3.73,13-7.67c12.75-7.81,25.28-16.31,37.25-25.26l25.79-19.29-1.84,32.16c-2,34.69-4.18,64.37-6.57,88.5l1.74-.25A459.17,459.17,0,0,1,5958.87,1764.81ZM4926.28,789.56l238.24,238.23-5.61,9.92a487.48,487.48,0,0,0,424.87,727.1q5.42,0,10.82-.12-59.87-23.46-121-84.68c-27.64-27.74-69.66-76.07-112.91-148.76l-.26-.43c-157.06-263.88-49.56-586.9,4-713.53,4.5-10.64,8.61-19.91,12.17-27.73Z"/><polygon class="cls-1" points="5705.27 1765.02 5705.12 1764.38 5705.15 1764.47 5705.27 1765.02"/><polygon class="cls-1" points="5690.69 1768.48 5691.48 1768.26 5690.67 1768.44 5690.52 1767.8 5690.52 1767.8 5690.52 1767.8 5690.77 1767.74 5719.58 1760.38 5719.9 1761.7 5691.6 1768.23 5690.69 1768.48"/><path class="cls-1" d="M5716,1757c-3.88,1.17-7.85,2.21-11.8,3.09C5708.13,1759.16,5712.1,1758.12,5716,1757Z"/><path class="cls-1" d="M5707.52,1774.77l-6.91-29.19c3.84-1,7.69-2,11.43-3l8.34,28.81C5716.23,1772.65,5711.91,1773.78,5707.52,1774.77Z"/><path class="cls-1" d="M6461.43,789.62l-.16,0,.31,0Zm.9,4.93,0,0h0l.19-.06Z"/><path class="cls-1" d="M6397.43,820.4l58.82-39.86,2.18-.48-1.13-4.86,2.05-.55,2.23,0,.87,18.72.68,2.41L6470.7,807l-7.54-11.14,4.19,12.84-1.37.47Zm65.26-22,.28,6.15c.37,0,.74-.09,1.11-.16Z"/><path class="cls-1" d="M6461.58,789.62l-.31,0,.16,0Z"/><polygon class="cls-1" points="6461.58 804.62 6461.43 804.62 6461.43 793.01 6457.3 775.2 6459.35 774.65 6461.58 774.62 6462.45 793.34 6465.4 804.09 6465.28 804.12 6462.49 794.06 6462.69 798.41 6461.58 793.65 6461.58 804.62"/><path class="cls-1" d="M6462.51,794.5l-.19.06h0l0,0Z"/><polygon class="cls-1" points="6397.43 820.4 6456.25 780.54 6459.07 779.91 6461.44 790.59 6461.84 791.8 6459.86 779.76 6461.89 791.95 6463.13 795.75 6470.7 806.99 6463.16 795.85 6467.35 808.7 6465.98 809.16 6397.43 820.4"/><path class="cls-1" d="M6959,1505.15c2.88,24.89.17,50.29-8,75.48-6.74,20.7-15.47,36.22-20.7,45.49l-.27.49c-20.75,36.89-50.78,66-91.81,88.89-34.49,19.28-69.4,30.1-97.48,38.81l-.13,0c-12.75,4-25.83,7.41-38.89,10.3l-.16,0h0a508.72,508.72,0,0,1-109.81,11.8q-13.24,0-26.58-.66a579.85,579.85,0,0,1-112.64-17c-63.72-16-104.53-37.58-104.93-37.79-181-96.3-238.68-270.81-252-322l-.64-2.45,193.56-48.39.66,2.35c30.26,108.61,86.68,204,163.12,275.78,18.72,17.57,57.65,54.15,103.46,84.29,55,36.22,103.85,52.74,145.07,49.08h0c12.82-2.85,25.67-6.25,38.18-10.13h0c61.07-28.51,93-112.54,88.51-177.41-2.76-40.13-19.1-70.81-31-93.21-20.15-37.86-48.75-71.91-85-101.19-57.66-46.58-114-65.37-181.67-85.09l-11.7-3.4c-61.87-17.93-125.84-36.48-197.84-80.81-27.31-16.81-61.87-41.8-86.93-86.09-8.41-14.86-28.11-49.67-27.71-95.19.24-26.9,7.66-53.62,22.05-79.41,11.78-21.09,28.28-41.71,49.05-61.28,38.22-36,79.72-57.77,87.64-61.77,16.76-8.44,37-16.6,60.23-24.26h0l.06,0c19.08-6.3,33.64-10.07,36.38-10.76l.11,0,.11,0,.31,0h-.14c18.42-4.59,66.55-15,121.6-14.81,35.5.13,72.53,4.85,110.06,14A588.76,588.76,0,0,1,6783.42,819c51,21.67,83.44,43.59,83.76,43.81,63.33,43.38,115,100.35,153.53,169.31a528.45,528.45,0,0,1,49.8,123.14l.64,2.44-193.48,48.37-.71-2.23c-30.48-95.63-78.1-180.16-141.52-251.26C6711,925.25,6670.16,879.46,6622,844.46c-56.49-41-110.19-57.78-159.63-49.9l.19-.06-.18,0,0,0h-.06c-3,.75-17.22,4.46-35.9,10.61h0c-20.23,8.65-37.46,20.78-51.23,36.06-34.2,37.94-45.55,91.93-33.74,160.48,14.11,81.79,67.95,132.43,88.22,151.49,38.94,36.63,80.52,57.67,211.86,107.24,40.2,15.17,89.23,33.14,136.22,50.29a332.12,332.12,0,0,1,47.11,21.14,294.26,294.26,0,0,1,69.68,52.27c1.19,1.22,2.33,2.42,3.59,3.77C6917,1408.45,6952.25,1446.57,6959,1505.15Z"/><path class="cls-1" d="M6591.73,1791.49c-9,0-18.22-.23-27.32-.68a594.75,594.75,0,0,1-115.56-17.39c-65.2-16.4-106.58-38.18-108.31-39.1-186.42-99.15-245.76-278.77-259.51-331.46l-4.45-17.11,222.41-55.6,4.59,16.4c29.53,106,84.49,199,158.94,268.89l.08.07c18.4,17.28,56.69,53.23,101.35,82.62,51.71,34,97,49.75,134.55,46.75,11.78-2.64,23.57-5.77,35.05-9.29,53.92-25.89,83-104.21,79-162.36-2.53-36.93-18-66-29.3-87.19-19.2-36.08-46.52-68.57-81.18-96.57-55.49-44.83-110.41-63.11-176.44-82.36l-11.69-3.39c-62.83-18.21-127.79-37-201.52-82.44-28.84-17.76-65.38-44.21-92.12-91.48-9-15.9-30.09-53.15-29.66-102.71.26-29.45,8.32-58.58,24-86.59,12.52-22.44,30-44.27,51.86-64.89,39.67-37.38,82.9-60.07,91.17-64.24q6.77-3.4,14.23-6.75h-32.66L6457,775.27l.23-.06.53-.13h.06c18.72-4.66,68.38-15.45,125.28-15.26,36.67.14,74.88,5,113.55,14.43a604.08,604.08,0,0,1,92.64,31c52.54,22.34,86.07,45,86.39,45.26,65.23,44.68,118.44,103.35,158.13,174.35A543.67,543.67,0,0,1,7085,1151.52l4.44,17.09-221.83,55.46-5-15.66c-29.83-93.59-76.4-176.29-138.42-245.81-24-26.91-64.19-72-111.1-106-52.93-38.4-102.67-54.32-147.87-47.32-3.25.84-16.37,4.3-33.35,9.87l-.29.09a129.84,129.84,0,0,0-45.41,32.06c-31,34.35-41.09,84.11-30.09,147.89,13.25,76.84,64.44,125,83.71,143.11,37.18,35,77.78,55.42,206.88,104.13,40.21,15.18,89.16,33.12,136.06,50.24a345.61,345.61,0,0,1,49.16,22.07,309.6,309.6,0,0,1,73.22,55c1.28,1.32,2.5,2.6,3.84,4,20.14,21.77,57.59,62.25,64.93,125.7h0c3.12,27,.2,54.58-8.67,81.84-7.23,22.17-16.41,38.48-21.9,48.22l-.23.42c-22.19,39.43-54.1,70.38-97.6,94.69-35.83,20-71.51,31.09-100.21,40l-.31.09c-13.08,4-26.55,7.63-40.05,10.62l-.09,0-.08,0-.18,0h0A524.73,524.73,0,0,1,6591.73,1791.49ZM6745,1768.7l-.05,0Zm-631.51-361.24c18,60.92,77.85,213.5,241.17,300.37.38.2,40.25,21.08,101.55,36.49a565.15,565.15,0,0,0,109.72,16.53c8.61.43,17.3.64,25.84.64q13.58,0,27-.71-33.9-13-71.3-37.59c-46.82-30.81-86.38-68-105.4-85.81l-.07-.07c-75.69-71.1-132.21-164.6-163.94-271Zm235.62-556.9A381.86,381.86,0,0,0,6287,897.45c-19.66,18.51-35.21,37.92-46.24,57.67-13.16,23.57-19.93,47.87-20.15,72.24-.36,41.51,17.95,73.85,25.76,87.66,23.38,41.32,56,64.84,81.75,80.71,70.26,43.26,133.24,61.52,194.14,79.18l11.73,3.4c69.3,20.2,127.07,39.49,186.9,87.82,37.82,30.55,67.7,66.15,88.81,105.81,12.57,23.59,29.78,55.91,32.75,99.24,2.43,35.38-5.23,75.35-21,109.63a202.74,202.74,0,0,1-21.7,36.83,331.69,331.69,0,0,0,31.15-15.23c38.55-21.54,66.69-48.74,86.06-83.16l.24-.42c5-8.84,13.24-23.51,19.54-42.85,7.53-23.12,10-46.38,7.39-69.1h0c-6.21-53.72-39.32-89.52-57.12-108.75-1.14-1.23-2.2-2.35-3.31-3.49a279.35,279.35,0,0,0-66.14-49.58,317.3,317.3,0,0,0-45.05-20.21c-47-17.15-96-35.12-136.38-50.35-133.59-50.41-176.15-72.07-216.84-110.34-21.27-20-77.76-73.15-92.72-159.88C6315.78,941.73,6323.35,890.15,6349.07,850.56ZM6555,790.61q37.11,13.67,75.8,41.71c49.53,35.95,91.06,82.5,115.87,110.31,62.36,69.9,109.75,152.46,141,245.52l165.06-41.26a517.17,517.17,0,0,0-45-107.42c-37.41-66.93-87.52-122.2-148.92-164.26-.27-.18-31.85-21.42-81.15-42.38a572.36,572.36,0,0,0-88-29.44c-36.39-8.88-72.24-13.45-106.56-13.58C6573.38,789.77,6564,790.07,6555,790.61Z"/><path class="cls-1" d="M8146.82,1516.68l-2.93,4a767.74,767.74,0,0,1-98.54,109.95c-61.44,56.4-126.8,97-194.25,120.78h0l-.1,0a446,446,0,0,1-44.49,13.1l-.14,0c-60.79,14.44-121.76,14.85-128.52,14.85-19.58,0-122.14-2.11-219-43.76-82.08-35.31-158.56-98.49-215.33-177.89a552.26,552.26,0,0,1-69.6-131.39,507.59,507.59,0,0,1-30.64-149.33,493.15,493.15,0,0,1,4.49-91,525,525,0,0,1,49.07-160.22c11.14-22.57,31.88-64.56,67.21-108.72,43.49-54.37,94.83-93.79,152.6-117.17l0,0h0c9.8-4,20-7.53,30.15-10.58l.12,0h0c66.32-19.78,123.06-14.6,144.38-11.45,66.36,9.8,128.09,40.2,183.46,90.37l3.46,3.15-4.54,1.13-129.08,32.27-1.61.41-1-1.33c-29.46-39.32-63.08-70.22-97.25-89.38-33.7-18.89-67.12-25.92-96.64-20.31h0c-10,3-19.89,6.46-29.47,10.33-54.13,28.33-97.11,107.49-121,222.91-30.39,146.56,10.25,310.25,114.43,460.94,85.5,123.67,206.3,226.2,307.74,261.19,31.33,10.81,58.55,14,85.65,10.1a436.67,436.67,0,0,0,43.72-12.88h0c100.8-45.57,155-186.33,169.21-228.39l.57-1.7Z"/><path class="cls-1" d="M7677.82,1794.43c-20.09,0-125.36-2.17-224.89-45-84.57-36.38-163.27-101.35-221.61-183a567.45,567.45,0,0,1-71.49-135,523.21,523.21,0,0,1-31.53-153.75,508.72,508.72,0,0,1,4.61-93.83,540,540,0,0,1,50.49-164.79c11.38-23.06,32.57-66,68.94-111.44,44.75-56,97.65-96.69,157.25-121.12l.42-.28,1.56-.52c10.08-4.06,20.47-7.7,30.92-10.82l.33-.1.18,0c69.06-20.52,128.27-15.11,150.54-11.82,69.36,10.24,133.73,41.9,191.34,94.1l24.25,22-172.11,43-7-9.32c-28.21-37.65-60.22-67.15-92.57-85.28-30.3-17-59.94-23.48-85.77-18.8-9,2.72-18,5.87-26.7,9.36-24,12.78-45.86,37.11-65,72.32-20,36.9-36.08,84-47.69,140-29.55,142.49,10.25,302.07,112.08,449.36,83.8,121.21,201.67,221.52,300.3,255.54,28.72,9.91,53.51,13,77.95,9.53a422.35,422.35,0,0,0,40.81-12l2.42-1.11c93.47-44.48,144.73-178,158.31-218.19l4-11.9h168.25l-20.5,27.87a782.49,782.49,0,0,1-100.47,112.12c-61.62,56.56-127.2,97.69-195,122.3l-.09.12-1.21.41-.24.24-3.32,1-2,.7c-14.24,4.93-28.74,9.16-43.14,12.61h0l-.67.16C7747.37,1794,7684.75,1794.43,7677.82,1794.43Zm131.91-15.24h0ZM7343.45,859.33a400.1,400.1,0,0,0-67.69,67.15c-34.33,42.91-54.58,83.94-65.47,106a510,510,0,0,0-47.66,155.66,476.52,476.52,0,0,0-4.36,88.18A492.67,492.67,0,0,0,7188,1421.24a537.29,537.29,0,0,0,67.71,127.81c55.21,77.21,129.45,138.59,209.06,172.84,94.13,40.49,194,42.54,213,42.54,2.91,0,16.15-.08,35.14-1.38-103.85-36.61-226.57-140.82-313.22-266.16-106.55-154.1-148-321.91-116.78-472.51,12.2-58.88,29.26-108.75,50.7-148.23Q7338.43,867.36,7343.45,859.33Zm686.21,672.35c-12.11,33.91-40.42,102.77-87,158.77a627.23,627.23,0,0,0,92.54-70.88,749.43,749.43,0,0,0,81.42-87.89Zm-500.35-741.4a214.61,214.61,0,0,1,22.83,11.13c34,19.07,67.37,49,96.85,86.84l97.61-24.41c-48.32-38.92-101.18-62.83-157.44-71.13A306.83,306.83,0,0,0,7529.31,790.28Z"/><path class="cls-1" d="M8916.64,1787.38l-3.4-.72c-5.4-1.13-11.31-2.17-17.57-3.07a466.26,466.26,0,0,0-124.29,0c-6.25.9-12.17,1.94-17.57,3.07l-3.39.72.39-3.45c3.06-26.4,5.84-61.46,8.28-104.27-12.35,9.24-25.24,18-38.38,26a499.35,499.35,0,0,1-128.46,55.75h0c-1.09.33-2.18.65-3.28,1-1.44.41-2.88.79-4.33,1.16s-3.08.75-4.62,1.09h0l-.06,0a504.54,504.54,0,0,1-121.35,14.75,502.42,502.42,0,0,1-437.82-749.28L7765,774.43h510l-1.71,3.58c-4.57,9.58-11.64,24.66-20.23,45-52.61,124.49-158.4,441.9-4.87,699.84l.25.43c42.45,71.35,83.59,118.67,110.62,145.8,75.56,75.84,149.49,106.37,219.74,90.73l.06,0h.1c3.95-.88,7.92-1.92,11.8-3.09l.09,0h0l.29-.09c46.68-14.15,89.27-48.53,123.22-99.45l.33-.51c21-31.7,37.87-68.42,50-109.13,2.52-82.45,3.85-176,3.85-270.53,0-88.67-1.12-173.54-3.31-252.27L8515,774.43h400.74l-.3,2.77c-6.12,56.94-11.09,150.29-14,262.86-1.93,74.48-2.9,154.18-2.9,236.87s1,162.39,2.9,236.87c3,117.88,8.3,213.81,14.81,270.13Z"/><path class="cls-1" d="M8933.91,1806.34l-23.76-5c-5.07-1.07-10.67-2-16.63-2.91a451.93,451.93,0,0,0-120,0c-6,.86-11.55,1.84-16.63,2.91l-23.75,5,2.76-24.12c2.25-19.41,4.35-43.68,6.29-72.4q-6.78,4.44-13.65,8.66a514.74,514.74,0,0,1-131.81,57.28l-1.92.68h-.42l-1.46.42c-1.48.42-3.05.83-4.62,1.23s-3.33.81-4.95,1.18a520,520,0,0,1-124.84,15.16,517.42,517.42,0,0,1-456.39-761.64L7728.78,759.43h570l-12,25.05c-4.55,9.52-11.56,24.5-19.95,44.35-51.72,122.4-155.82,434.29-5.8,686.34l.28.47c41.64,70,81.89,116.31,108.32,142.84,71.51,71.77,140.6,101,205.36,86.79l.57-.18.62-.09c3.42-.78,6.77-1.66,10-2.63l2.38-.73c42.58-13.44,81.74-45.52,113.3-92.86l.28-.43c19.94-30,35.93-64.77,47.58-103.32,2.47-81.83,3.78-174.48,3.78-268.1,0-86.24-1.06-168.93-3.14-245.89L8478.78,759.43h453.67l-2.1,19.39c-6.08,56.55-11,149.47-13.93,261.63-1.92,74.3-2.89,153.87-2.89,236.48s1,162.18,2.89,236.48c3,117.46,8.27,212.92,14.72,268.8Zm-100.38-41.91a458.77,458.77,0,0,1,64.29,4.31l1.75.26c-5.74-58-10.36-147.37-13.14-254.81-1.92-74.56-2.9-154.39-2.9-237.26s1-162.7,2.9-237.26c2.7-104.27,7.17-192.22,12.69-250.24H8551.21l228.84,228.84.16,6c2.2,78.92,3.32,163.94,3.32,252.69,0,94.67-1.33,188.38-3.85,271l-.06,1.95-.56,1.87c-12.54,42.15-30,80.22-51.86,113.16l-.29.45a328.06,328.06,0,0,1-27,35.22q6.54-3.72,13-7.66c12.74-7.81,25.26-16.3,37.23-25.25l25.8-19.29-1.84,32.16c-2,34.69-4.19,64.35-6.58,88.48l1.75-.26A458.77,458.77,0,0,1,8833.53,1764.43Zm-1032.32-975,238.17,238.17-5.61,9.92a487.34,487.34,0,0,0,424.76,726.91q5.4,0,10.8-.12-59.85-23.44-120.91-84.65c-27.63-27.74-69.64-76.05-112.88-148.72l-.27-.47c-157-263.78-49.53-586.72,4-713.31,4.49-10.63,8.6-19.9,12.17-27.73Z"/><polygon class="cls-1" points="8579.99 1764.65 8579.84 1764.01 8579.87 1764.1 8579.99 1764.65"/><polygon class="cls-1" points="8565.43 1768.18 8567.26 1767.65 8565.39 1768.09 8565.24 1767.44 8565.25 1767.44 8565.24 1767.43 8565.81 1767.3 8594.28 1759.93 8594.62 1761.33 8567.5 1767.6 8565.43 1768.18"/><path class="cls-1" d="M8590.75,1756.67c-3.88,1.17-7.85,2.21-11.8,3.09C8582.84,1758.79,8586.81,1757.75,8590.75,1756.67Z"/><path class="cls-1" d="M8582.24,1774.4l-6.92-29.19c3.86-1,7.71-2,11.44-3l8.34,28.81C8591,1772.28,8586.62,1773.41,8582.24,1774.4Z"/><path class="cls-1" d="M9958.65,1522.53l-2.12,3.73a490,490,0,0,1-121.69,142.66A516.56,516.56,0,0,1,9681.08,1753l0,0-.13,0c-12.79,4.35-25.29,8-38.23,11.28l-.15,0c-34.44,8.61-73.14,13.52-111.93,14.22q-4.89.09-9.76.09c-68.48,0-134-13-194.77-38.57-68.94-29-119.23-69.69-143.08-91.35a501.88,501.88,0,0,1-94.7-116c-28.07-47.48-48.06-100.19-59.41-156.68a551.26,551.26,0,0,1-10.6-99.29c-2.82-135.33,48.59-239.36,113.67-371.06,37.52-75.92,80-161.92,119.86-269.21L9065.89,450.58,9459,352.29l-.09,3.29c-.51,19-1.76,38.15-3.72,56.93-6.52,62.8-20.71,119.91-43.39,174.59-20.14,48.59-45.09,91.12-71,134l-6.21,10.25c-22.31,36.82-45.37,74.88-65.83,117.56-27.7,57.79-46.14,114.5-58,178.46-.08.39-7.38,40.21-10,96.48l0,.38s0,.09,0,.14,0,.1,0,.15,0,.13,0,.2,0,.11,0,.18a.86.86,0,0,1,0,.15l0,.35c0,.14,0,.28,0,.42s0,.29,0,.43c-.42,9.73-.67,19.7-.77,29.65v.09h0a690.43,690.43,0,0,0,26,191.25c6.82,20.48,15.45,42,15.53,42.24a775.6,775.6,0,0,0,69.52,133.85c.61.94,62.05,94.76,141.55,161.59a383.92,383.92,0,0,0,53.12,37.86c17.73,10.47,37.83,22.33,65.73,29.85l.14,0c9.79,2.64,39.56,10.69,70.19,6.74,12.69-3.18,24.95-6.8,37.5-11.06h0c43.69-20.56,73.47-62.82,93.18-90.78,30.78-43.69,43.32-83.36,52.47-112.33,2.21-7,4.2-13.84,6.08-20.89l.5-1.85Z"/><path class="cls-1" d="M9520.84,1793.68c-70.47,0-138-13.38-200.59-39.75-71-29.89-122.79-71.77-147.34-94.07a516.36,516.36,0,0,1-97.53-119.49c-28.93-48.93-49.52-103.22-61.2-161.36a565.57,565.57,0,0,1-10.9-101.93c-2.89-139,49.23-244.47,115.22-378l.12-.24c36.25-73.38,77.21-156.27,115.76-258.56L9036.55,442.45l438-109.5-.63,23c-.52,19.37-1.79,38.91-3.79,58.07-6.68,64.27-21.22,122.76-44.45,178.79-20.53,49.53-45.8,92.61-72,136l-6.22,10.26c-22.11,36.5-45,74.24-65.13,116.28-27.12,56.56-45.17,112.08-56.81,174.71-.08.4-7.2,39.37-9.77,94.44l-.06,1.1c0,.11,0,.24,0,.37v.07c0,.16,0,.31,0,.47s0,.33,0,.48c-.4,9.33-.65,19.06-.75,28.94v.08a676,676,0,0,0,25.34,186.77c6.52,19.53,14.77,40.2,15.12,41.08a760.72,760.72,0,0,0,68.17,131.25c.6.93,61,93,138.62,158.28a369.68,369.68,0,0,0,51.09,36.43c16.91,10,36.08,21.29,62,28.29l.23.07c9.14,2.46,36.18,9.71,63.42,6.42,11.64-2.94,23-6.29,34.65-10.23,39.7-19,67.86-59,86.54-85.47,29.46-41.81,41.58-80.19,50.44-108.22,2.14-6.78,4.07-13.4,5.89-20.24l3.47-13h164.57l-14.84,26.14a505.16,505.16,0,0,1-125.37,147A532.05,532.05,0,0,1,9688,1766.49l-.17.12-2.16.68c-13.13,4.47-26,8.26-39.3,11.59l-.39.1c-35.46,8.84-75.24,13.89-115.06,14.61C9527.52,1793.65,9524.15,1793.68,9520.84,1793.68Zm-425.61-1335,174,174-3.35,9c-40.07,107.91-82.73,194.24-120.36,270.41l-.12.23c-64.18,129.87-114.87,232.44-112.12,364.1a536.23,536.23,0,0,0,10.31,96.64c11,54.83,30.4,106,57.62,152a486.58,486.58,0,0,0,91.87,112.55c23.13,21,71.93,60.47,138.81,88.63,58.93,24.82,122.5,37.4,189,37.4,3.13,0,6.32,0,9.49-.09,7.54-.14,15.08-.44,22.58-.89-22.46-7.78-39.57-17.88-55-27a398.33,398.33,0,0,1-55.14-39.29c-81.69-68.67-143.87-164-144.48-164.91a791,791,0,0,1-70.86-136.43c-.37-.94-9-22.62-15.84-43.08l-.2-.64a705.85,705.85,0,0,1-26.57-195.4v-.2c.1-10.28.37-20.43.79-30.15l.13-2.52c2.69-57.59,10.17-98.12,10.24-98.52,12.13-65.23,31-123.12,59.25-182.13,20.78-43.36,44-81.74,66.52-118.85l6.2-10.24c25.63-42.4,50.27-84.4,70-132,22.1-53.32,36-109,42.32-170.4,1.36-13,2.36-26.13,3-39.28Zm747.55,1078.83c-1.17,4.08-2.4,8.14-3.7,12.26-9.44,29.9-22.38,70.85-54.51,116.45-7.59,10.77-16.61,23.57-27.34,36.55a492.06,492.06,0,0,0,68.25-45.59,483.4,483.4,0,0,0,70.46-69.16,471.54,471.54,0,0,0,36.4-50.51ZM9215.7,1124.94h0v0Z"/><path class="cls-1" d="M10729.14,1787.38l-3.4-.72c-5.4-1.13-11.31-2.17-17.57-3.07a466.26,466.26,0,0,0-124.29,0c-6.25.9-12.17,1.94-17.57,3.07l-3.39.72.39-3.45c3.06-26.4,5.84-61.46,8.28-104.27-12.35,9.24-25.24,18-38.38,26a499.35,499.35,0,0,1-128.46,55.75h0c-1.09.33-2.18.65-3.28,1-1.44.41-2.88.79-4.33,1.16s-3.08.75-4.62,1.09h0l-.06,0a504.54,504.54,0,0,1-121.35,14.75,502.42,502.42,0,0,1-437.82-749.28L9577.49,774.43h510l-1.71,3.58c-4.57,9.58-11.64,24.66-20.23,45-52.61,124.49-158.4,441.9-4.87,699.84l.25.43c42.45,71.35,83.59,118.67,110.62,145.8,75.56,75.84,149.49,106.37,219.74,90.73l.06,0h.1c3.95-.88,7.92-1.92,11.8-3.09l.09,0h0l.29-.09c46.68-14.15,89.27-48.53,123.22-99.45l.33-.51c21-31.7,37.87-68.42,50-109.13,2.52-82.45,3.85-176,3.85-270.53,0-88.67-1.12-173.54-3.31-252.27l-250.23-250.23h400.74l-.3,2.77c-6.12,56.94-11.09,150.29-14,262.86-1.93,74.48-2.9,154.18-2.9,236.87s1,162.39,2.9,236.87c3,117.88,8.3,213.81,14.81,270.13Z"/><path class="cls-1" d="M10746.41,1806.35l-23.76-5c-5.09-1.07-10.69-2-16.62-2.91a452,452,0,0,0-120,0c-5.94.86-11.53,1.84-16.63,2.91l-23.75,5,2.76-24.13c2.25-19.41,4.35-43.68,6.29-72.4q-6.78,4.44-13.65,8.66a514.74,514.74,0,0,1-131.81,57.28l-1.92.68h-.42l-1.46.42c-1.48.42-3.05.83-4.62,1.23s-3.32.81-4.95,1.18a519.77,519.77,0,0,1-124.84,15.16,517.42,517.42,0,0,1-456.39-761.64L9541.28,759.43h570l-12,25.05c-4.54,9.51-11.56,24.48-19.95,44.35-51.72,122.4-155.82,434.28-5.8,686.34l.27.45c41.65,70,81.9,116.33,108.34,142.86,71.51,71.78,140.59,101,205.35,86.79l.57-.18.62-.09c3.42-.78,6.78-1.66,10-2.63l2.38-.73c42.61-13.47,81.75-45.54,113.3-92.86l.28-.43c19.94-30,35.93-64.76,47.58-103.32,2.47-81.82,3.78-174.48,3.78-268.1,0-86.24-1.06-168.93-3.14-245.89l-271.61-271.61H10745l-2.1,19.39c-6.08,56.55-11,149.47-13.93,261.63-1.92,74.3-2.89,153.87-2.89,236.48s1,162.18,2.89,236.48c3,117.46,8.27,212.92,14.72,268.8ZM10646,1764.43a458.56,458.56,0,0,1,64.29,4.31l1.75.26c-5.74-58-10.36-147.37-13.14-254.81-1.92-74.56-2.9-154.39-2.9-237.26s1-162.7,2.9-237.26c2.7-104.27,7.17-192.22,12.69-250.24h-347.91l228.84,228.84.16,6c2.2,78.92,3.32,163.94,3.32,252.69,0,94.67-1.33,188.38-3.85,271l-.06,1.95-.56,1.87c-12.54,42.15-30,80.22-51.86,113.16l-.29.45a328.06,328.06,0,0,1-27,35.22q6.54-3.72,13-7.66c12.74-7.81,25.26-16.3,37.23-25.25l25.8-19.29-1.84,32.16c-2,34.69-4.19,64.35-6.58,88.48l1.75-.26A458.56,458.56,0,0,1,10646,1764.43Zm-1032.32-975,238.17,238.17-5.61,9.92A487.34,487.34,0,0,0,10271,1764.43q5.4,0,10.8-.12-59.85-23.44-120.91-84.65c-27.63-27.73-69.64-76.05-112.88-148.72l-.26-.45c-157-263.8-49.54-586.74,3.95-713.33,4.5-10.64,8.6-19.91,12.17-27.73Z"/><polygon class="cls-1" points="10392.49 1764.65 10392.34 1764.01 10392.37 1764.1 10392.49 1764.65"/><polygon class="cls-1" points="10377.89 1768.06 10377.74 1767.42 10406.82 1760.08 10407.12 1761.33 10377.89 1768.06"/><path class="cls-1" d="M10403.25,1756.67c-3.88,1.17-7.85,2.21-11.8,3.09C10395.34,1758.79,10399.31,1757.75,10403.25,1756.67Z"/><path class="cls-1" d="M10394.74,1774.4l-6.92-29.19c3.84-1,7.69-2,11.44-3l8.34,28.81C10403.46,1772.28,10399.13,1773.41,10394.74,1774.4Z"/><path class="cls-1" d="M12228.89,1787.38l-3.39-.72c-22.28-4.66-50.59-7.23-79.72-7.23s-57.44,2.57-79.72,7.23l-3.39.72.4-3.45c3.7-32,7-76.61,9.64-130.21.06-1.28.13-2.57.19-3.86,4.33-88,7.11-199.68,7.74-319.26.1-18.19.14-36.24.14-53.67v-187.5c0-.43,0-.86,0-1.29q0-9.44-.44-18.87c-.46-10.27-1.27-20.49-2.43-30.56l-.07-.14v-.48a401.65,401.65,0,0,0-26-103.74c-.38-.94-.76-1.88-1.16-2.81a330.35,330.35,0,0,0-23.11-45.8c-34.17-56.12-81-92.41-131.73-103a151,151,0,0,0-29.83-3.26h-2.84c-31,.28-61.14,10.11-88.69,28.24s-52.47,44.57-72.87,78.06c-26.37,43.32-43.78,96-50.33,152.48a445.62,445.62,0,0,0-2.94,51.21v187.5c0,17.43,0,35.48.14,53.67,1,194.73,7.76,368.43,17.57,453.33l.4,3.45-3.39-.72c-22.28-4.66-50.59-7.23-79.72-7.23s-57.44,2.57-79.72,7.23l-3.39.72.4-3.45c9.81-84.9,16.54-258.6,17.57-453.33.1-18.19.14-36.24.14-53.67v-187.5a446.71,446.71,0,0,0-2.88-50.72l-.07-.14v-.48c-6.56-56.39-24-109.07-50.31-152.35-40.79-67-99.67-105.74-161.58-106.3h-2.79c-61.9.56-120.8,39.3-161.59,106.3-26.35,43.29-43.76,96-50.32,152.38-.7,26.57-1.29,54.89-1.76,84.18-.79,49.94-1.19,102-1.19,154.63,0,17.43,0,35.48.14,53.67,1,194.73,7.76,368.43,17.57,453.33l.4,3.45-3.4-.72c-5.4-1.14-11.31-2.17-17.57-3.07a466.26,466.26,0,0,0-124.29,0c-6.25.9-12.16,1.93-17.56,3.07l-3.4.72.4-3.45c10.75-93.08,17.71-292.09,17.71-507,0-88.67-1.12-173.54-3.31-252.28l-250.23-250.22h601.21a379.68,379.68,0,0,1,88.91,10.81,365,365,0,0,1,80.28,30,352.45,352.45,0,0,1,38,22.73,332.34,332.34,0,0,1,72.65,67.67,332.34,332.34,0,0,1,72.65-67.67,352.45,352.45,0,0,1,38-22.73,365,365,0,0,1,80.28-30,379.68,379.68,0,0,1,88.91-10.81h2.84q15,0,29.83,1.27,7.59.6,15.12,1.52a376.54,376.54,0,0,1,44,8,365,365,0,0,1,80.28,30,352.45,352.45,0,0,1,38,22.73,338.6,338.6,0,0,1,32.39,25.31c.63.54,1.26,1.1,1.88,1.66q12.29,11,23.32,23.07c.61.66,1.21,1.33,1.81,2a313.24,313.24,0,0,1,40.76,56.69,296,296,0,0,1,27.74,68.16,289.4,289.4,0,0,1,9.75,74.55v187.5c0,132.2,2.63,258.39,7.16,357.6.08,1.64.15,3.27.23,4.89,2.33,49.78,5.14,92.57,8.33,125.62.09.92.18,1.83.26,2.73.57,5.69,1.14,11.09,1.73,16.16Z"/><path class="cls-1" d="M12246.2,1806.39l-23.82-5.05c-21.26-4.45-48.48-6.91-76.6-6.91s-55.34,2.46-76.65,6.91l-23.77,5.05,2.81-24.19c3.6-31.14,6.82-74.62,9.56-129.23l.19-3.81c4.36-88.78,7.11-201.92,7.72-318.64.09-16.89.14-34.92.14-53.59v-187.5c0-.31,0-.63,0-1v-.31c0-6-.15-12.11-.43-18.23-.4-9-1.09-18.07-2-26.9l-.39-.77-.06-3.15a385,385,0,0,0-25-99.15c-.34-.83-.67-1.67-1-2.5l-.09-.21a316.34,316.34,0,0,0-22-43.72c-31.77-52.17-75.1-86.32-122-96.16a137.46,137.46,0,0,0-26.81-2.94h-2.72c-27.84.27-54.92,8.94-80.51,25.77-26.17,17.22-49.15,41.89-68.3,73.33-25.26,41.5-41.94,92.13-48.24,146.41a431.71,431.71,0,0,0-2.84,49.48v187.5c0,18.67,0,36.7.14,53.59,1,194.24,7.72,367.31,17.47,451.69l2.81,24.18-23.82-5.05c-21.26-4.45-48.48-6.91-76.6-6.91s-55.34,2.46-76.65,6.91l-23.77,5.05,2.81-24.19c9.75-84.37,16.44-257.44,17.47-451.68.09-16.89.14-34.92.14-53.59v-187.5a433,433,0,0,0-2.49-46.39l-.39-.77-.06-3.15c-6.38-54-23-104.31-48.14-145.58-38-62.45-92.29-98.57-148.87-99.1h-2.55c-56.61.51-110.89,36.63-148.92,99.1-25.14,41.31-41.79,91.66-48.15,145.65-.69,26.12-1.27,54.15-1.74,83.35-.79,49.85-1.19,101.8-1.19,154.39,0,18.67,0,36.7.14,53.59,1,194.24,7.72,367.31,17.47,451.69l2.8,24.17-23.81-5c-5-1.06-10.61-2-16.6-2.9a450.88,450.88,0,0,0-120,0c-6,.86-11.59,1.84-16.61,2.9l-23.81,5,2.81-24.18c10.7-92.62,17.61-291,17.61-505.27,0-86.06-1.06-168.75-3.14-245.9L10666,759.43h637.52a395.15,395.15,0,0,1,92.37,11.24,380.31,380.31,0,0,1,83.6,31.25,369.12,369.12,0,0,1,39.61,23.7,349.74,349.74,0,0,1,64.15,56.65,349.74,349.74,0,0,1,64.15-56.65,368.14,368.14,0,0,1,39.61-23.7,380.53,380.53,0,0,1,83.58-31.25,395.54,395.54,0,0,1,92.44-11.24h2.89c10.3,0,20.73.48,31,1.32,5.12.41,10.42.94,15.71,1.58a393.75,393.75,0,0,1,45.72,8.34,380.42,380.42,0,0,1,83.59,31.25,369.12,369.12,0,0,1,39.61,23.7,355.1,355.1,0,0,1,33.75,26.37c.7.6,1.39,1.22,2.08,1.83,8.4,7.52,16.6,15.64,24.32,24.07.62.67,1.28,1.4,1.93,2.13a328.64,328.64,0,0,1,42.67,59.37,311,311,0,0,1,29.14,71.62,304.23,304.23,0,0,1,10.26,78.41v187.5c0,129.27,2.54,256,7.14,356.92l.23,4.83c2.36,50.44,5.15,92.45,8.28,124.92l0,.45c.08.78.16,1.56.22,2.32.62,6.1,1.17,11.28,1.7,15.83ZM11530,1034.32l0,0,.3,2.64a460.77,460.77,0,0,1,3,52.43v187.5c0,18.72-.05,36.8-.14,53.75-1,183.31-7,348.19-15.9,438.33a478.34,478.34,0,0,1,132.07,0c-8.9-90.15-14.92-255-15.89-438.33-.09-17-.14-35-.14-53.75v-187.5a460.05,460.05,0,0,1,3-52.94c6.8-58.55,24.92-113.38,52.42-158.55,17-27.9,36.84-51.16,59.2-69.4a349.06,349.06,0,0,0-47.15,20.05,338.5,338.5,0,0,0-36.36,21.76A317.75,317.75,0,0,0,11595,915l-11.76,14.87L11571.51,915a317.47,317.47,0,0,0-69.38-64.62,338.5,338.5,0,0,0-36.36-21.76,346.9,346.9,0,0,0-47.18-20.05c22.14,18.1,42.21,41.45,59.23,69.4C11505,922.54,11523,976.57,11530,1034.32Zm565.79,53.66c0,.48,0,1,0,1.45v187.5c0,18.72-.05,36.8-.14,53.75-.62,117.14-3.37,230.75-7.76,319.92l-.19,3.83c-2.32,46.22-5,84.64-7.94,114.58a478.79,478.79,0,0,1,132.06,0c-.06-.66-.13-1.34-.19-2l-.05-.48c-3.18-33-6-75.49-8.38-126.38l-.23-4.86c-4.63-101.38-7.18-228.62-7.18-358.33v-187.5a274.56,274.56,0,0,0-9.24-70.68A281.33,281.33,0,0,0,12160.2,954a298.77,298.77,0,0,0-38.81-54c-.59-.65-1.13-1.26-1.69-1.86-7.1-7.76-14.59-15.17-22.3-22.07-.58-.52-1.11-1-1.64-1.45l-.18-.15a325.53,325.53,0,0,0-31-24.19,338.5,338.5,0,0,0-36.36-21.76,347.1,347.1,0,0,0-47.23-20.07c22.23,18.17,42.32,41.56,59.28,69.42a346,346,0,0,1,24.12,47.77c.43,1,.84,2,1.25,3a415,415,0,0,1,26.79,105.59l0,0,.3,2.64c1.19,10.34,2,21,2.51,31.6C12095.6,1075.1,12095.76,1081.62,12095.77,1088Zm-1075,676.45a457.41,457.41,0,0,1,64.29,4.32l1.74.25c-8.89-90.15-14.92-255-15.89-438.32-.09-17-.14-35-.14-53.75,0-52.75.4-104.85,1.19-154.87.48-29.55,1.07-57.93,1.76-84.33l0-.67.08-.67c6.8-58.51,24.93-113.3,52.41-158.45,23.79-39.08,53.55-69.16,86.62-88.51h-474.41l228.85,228.84.16,6c2.2,79.12,3.32,164.14,3.32,252.7,0,203.35-6.23,392.72-16,492.07l1.75-.25A457.41,457.41,0,0,1,11020.78,1764.43Z"/><path class="cls-1" d="M13521.82,1516.68l-2.93,4a767.82,767.82,0,0,1-98.53,110c-61.46,56.4-126.82,97.05-194.29,120.79l-.1,0a443.91,443.91,0,0,1-44.48,13.1l-.15,0h0c-60.77,14.43-121.74,14.85-128.5,14.85-19.58,0-122.14-2.11-219-43.77-46-19.79-89.91-48-130.42-83.67a560.27,560.27,0,0,1-105.29-124.76,545.4,545.4,0,0,1-55.56-119.2l-216.23,339.8q-2.16-1.2-4.35-2.49l218.6-343.52a513.9,513.9,0,0,1-17.23-74.42c-2-13-3.46-26.07-4.4-39-13.35-98.29-44.65-201.15-88.16-289.64-41.4-84.23-90-148.9-137-182.12-27.31-19.32-52.39-26.82-74.56-22.29-8,2.93-16.11,6.31-23.94,10.08-22.84,14.77-43.91,43.49-62.83,85.57-.6-.67-1.2-1.34-1.81-2q-11-12-23.32-23.07c-.62-.56-1.25-1.12-1.88-1.66,27-27.08,56.43-48.34,87.55-63.29a265.31,265.31,0,0,1,24.72-10.4l0,.06,0-.06a244.64,244.64,0,0,1,171.44,1.09c27.46,10.33,54,25.62,79,45.43,47.81,38,89.23,92.55,120,158,20.45-37.36,43.75-70.53,69.31-98.65,39.31-43.26,84.44-75.39,134.12-95.51h0l.05,0h0c9.79-4,19.94-7.53,30.14-10.58l.12,0h0c66.31-19.77,123-14.59,144.37-11.44,66.36,9.79,128.08,40.2,183.45,90.37l3.47,3.15-135.23,33.8-1-1.32c-29.46-39.32-63.08-70.22-97.25-89.38-33.7-18.89-67.12-25.92-96.64-20.31h0c-10,3-19.89,6.46-29.47,10.33h0c-54.11,28.34-97.09,107.49-121,222.9-30.4,146.55,10.24,310.24,114.42,460.94,85.51,123.67,206.31,226.2,307.75,261.19,31.32,10.81,58.54,14,85.63,10.11h0a437.7,437.7,0,0,0,43.73-12.89c100.8-45.57,155-186.32,169.21-228.38l.58-1.7Z"/><path class="cls-1" d="M13052.82,1794.43c-20.09,0-125.37-2.17-224.89-45-47.46-20.4-92.68-49.4-134.41-86.2a575.06,575.06,0,0,1-108.11-128.1,564.7,564.7,0,0,1-46.64-93.17l-207.34,325.83-12.35-6.85c-1.53-.85-3.11-1.75-4.68-2.68l-13.38-7.88,223.23-350.8a528.76,528.76,0,0,1-15.7-69.91c-2-13.23-3.53-26.57-4.5-39.69-13.17-96.61-44-197.66-86.69-284.58-40.31-82-87.25-144.69-132.17-176.5-23.33-16.5-44.14-23.24-61.86-20-7,2.59-13.93,5.51-20.59,8.68-20,13.31-39,39.75-56.53,78.62l-9.47,21.06L12121.35,900c-.55-.61-1.09-1.22-1.65-1.82-7.1-7.76-14.59-15.17-22.3-22.07-.58-.52-1.11-1-1.64-1.45l-12.29-10.53,11.43-11.45c28.2-28.26,59-50.54,91.67-66.22,4.09-2,8.25-3.84,12.43-5.62l-.1-.29,10.71-3.94,3.08-1.13,12.55-4.55.14.3a259.27,259.27,0,0,1,169.14,5.4c28.93,10.88,56.85,26.94,83,47.73,43.24,34.37,81.47,81.77,111.61,138.14a507.6,507.6,0,0,1,57.28-77.17c40.08-44.11,86.09-77.13,136.78-98.17l.67-.67,2.44-.67,20.4-10.2v2.76q5.37-1.8,10.84-3.43l.46-.13c69.07-20.53,128.28-15.11,150.55-11.82,69.34,10.23,133.71,41.89,191.33,94.1l24.25,22-172,43-7-9.22c-28.26-37.72-60.27-67.21-92.63-85.35-30.31-17-59.95-23.48-85.79-18.79-9,2.71-18,5.86-26.68,9.35-24,12.79-45.86,37.12-65,72.34-20,36.89-36.08,84-47.68,140-29.56,142.48,10.24,302.07,112.07,449.36,83.81,121.22,201.69,221.53,300.3,255.54,27,9.32,50.53,12.56,73.56,10.08l.75-.79h4.66c13.28-3.22,26.7-7.19,39.92-11.82,94.93-43.37,146.91-178.73,160.6-219.25l4.06-11.9h168.23l-20.52,27.87a782.74,782.74,0,0,1-100.47,112.12c-63,57.8-130.09,99.49-199.45,123.89l-.17.06-.22.07a457.62,457.62,0,0,1-45.35,13.36c-.29.08-.58.15-.88.21C13122.1,1794,13059.74,1794.43,13052.82,1794.43ZM12555.75,1400l1.11,3.42a530.88,530.88,0,0,0,54,115.92,545.47,545.47,0,0,0,102.47,121.42c39.35,34.7,81.88,62,126.42,81.14,94.13,40.5,194,42.55,213,42.55,2.91,0,16.15-.08,35.14-1.38-103.84-36.6-226.56-140.81-313.23-266.16-106.54-154.11-148-321.92-116.77-472.51,12.2-58.87,29.26-108.74,50.69-148.22q4.77-8.77,9.79-16.8a386.46,386.46,0,0,0-49.83,46.18c-24.74,27.22-47.37,59.44-67.25,95.76l-14.17,25.89-12.56-26.7c-29.8-63.33-69.83-116.1-115.77-152.62-23.71-18.84-48.91-33.35-74.9-43.13a232,232,0,0,0-81.93-15.1q-11.06,0-22.05,1.08a179.44,179.44,0,0,1,22.54,13.71c48.94,34.64,99.28,101.32,141.76,187.74,44.19,89.88,76,194.37,89.56,294.24l.1.93c.91,12.49,2.34,25.2,4.27,37.8a499.29,499.29,0,0,0,16.72,72.23Zm848.91,131.7c-12.09,33.87-40.41,102.76-87,158.77a627.83,627.83,0,0,0,92.55-70.88,750.33,750.33,0,0,0,81.41-87.89Zm-500.36-741.4a214.61,214.61,0,0,1,22.83,11.13c34,19.07,67.37,49,96.86,86.84l97.61-24.4c-48.32-38.94-101.19-62.84-157.43-71.14A307.83,307.83,0,0,0,12904.3,790.28Zm-776.9,72.82,1,1c.63-1.22,1.27-2.44,1.91-3.63C12129.34,861.32,12128.37,862.21,12127.4,863.1Z"/><path class="cls-1" d="M12326.36,1747.83l-2.68,4.2-1.46,2.3-.15.23-.18.28-12.53,19.68-3.23,5.08-52.22,82.07c-94,148.2-126.21,203.42-121.67,281.41a248.67,248.67,0,0,0,5.08,37.45,260.71,260.71,0,0,0,10.8,36.9l1.45,3.86-4.1-.51a503.65,503.65,0,0,0-120.92-.41l-5.22.61,230.35-362s0,0,0,0l.71-1.11,49.79-78.25,3.18-5,14.47-22.74c.06-.1.12-.2.18-.28l1.32-2.08,2.67-4.2Q12324.2,1746.63,12326.36,1747.83Z"/><path class="cls-1" d="M11989.74,2239.54l244.94-384.9V1844h6.77l63.66-100c.11-.19.24-.39.39-.61l11.63-18.3,12.49,7.36q2,1.18,4,2.3l13.94,7.74-12.86,20.16c-.08.13-.16.26-.25.39l-67.91,106.71c-92,145.14-123.62,199.07-119.35,272.49a234.79,234.79,0,0,0,4.78,35.19,246.68,246.68,0,0,0,10.18,34.78l10.17,27.06-28.72-3.57a488.09,488.09,0,0,0-117.31-.4Zm93.54-37.61c14.85,0,29.75.64,44.5,1.91q-3-10.07-5.13-20.18a265.54,265.54,0,0,1-5.39-39.7,226.43,226.43,0,0,1,2.86-53.43l-71.63,112.57C12060,2202.32,12071.67,2201.93,12083.28,2201.93Z"/><path class="cls-1" d="M12303.37,1774.64l-3.18,5h1.84c1.37,0,2.73,0,4.1,0l3.23-5.08Q12306.38,1774.63,12303.37,1774.64Zm18.64-29.3-2.67,4.2c1.45.87,2.9,1.69,4.34,2.49l2.68-4.2Q12324.2,1746.63,12322,1745.34Z"/><path class="cls-1" d="M12302,1794.64H12300l-26.83-.43,22-34.52,8.18,0c1.2,0,2.42,0,3.63-.05l-8.51-5.11,18.71-29.42,12.49,7.36q2,1.18,4,2.3l13.94,7.74-33.1,52-8,.18C12305,1794.63,12303.51,1794.64,12302,1794.64Z"/></svg>