<svg id="图层_1" data-name="图层 1" xmlns="http://www.w3.org/2000/svg" viewBox="0 0 7437.51 7343.78"><defs><style>.cls-1{fill:#0958d9;}</style></defs><path class="cls-1" d="M7437.51,5275.34l-137.92,187.58c-213.18,289.36-453.26,557.25-713.63,796.29-440.31,404.2-909.1,697.39-1393.72,871.72l-2.38,2.45L5167,7139.9l-13.08,4.56c-101.52,35.15-204.9,65.38-307.63,89.94l-.16.05-4.31,1c-443.31,105.26-887.83,108.3-937.06,108.3-80.44,0-298.63-4.43-586.65-45.53C3152.86,7274.68,2991,7242.63,2837,7203c-187.69-48.28-365.6-108.36-528.81-178.57C1707.9,6766.22,1149.23,6305,735.05,5725.73c-213.28-298.27-384-620.62-507.5-958.09C97.31,4411.63,22,4044.45,3.73,3676.3c-10.36-208.35.95-438.64,32.74-666,57.43-411.1,178-804.69,358.35-1169.81,80.85-163.77,231.36-468.63,489.48-791.27,319.7-399.68,697.92-690,1124.22-862.82,1.4-.6,2.83-1.17,4.26-1.71,71.82-29,146-55,220.42-77.2.79-.25,1.57-.48,2.35-.7l.48-.14.51-.14C2726.47-39.1,3146.5-.69,3304.48,22.61,3796.35,95.25,4253,319.83,4661.6,690.11l163.21,148.11L3693.31,1121.1l-76,19.13-47-62.78C3369.19,809,3140.83,598.65,2910,469.21c-217-121.65-429.42-168.06-614.7-134.36-64.7,19.49-129,42-191.15,67-172,91.5-328.44,265.48-465.12,517.2C1496.22,1182,1381.9,1517.56,1299.2,1916.46c-210.52,1015.07,72.9,2151.74,798.06,3200.62C2693.94,5980.13,3533.44,6694.4,4236,6936.77c205.43,70.88,382.81,92.53,557.73,68a3021.37,3021.37,0,0,0,292.45-86.18C5763.81,6609.23,6134.4,5644.26,6232,5355.42l27.1-80.08Z"/></svg>